<?xml version="1.0" standalone="no"?>
<!DOCTYPE svg PUBLIC "-//W3C//DTD SVG 20010904//EN"
 "http://www.w3.org/TR/2001/REC-SVG-20010904/DTD/svg10.dtd">
<svg version="1.0" xmlns="http://www.w3.org/2000/svg"
 width="1024.000000pt" height="1024.000000pt" viewBox="0 0 1024.000000 1024.000000"
 preserveAspectRatio="xMidYMid meet">

<g transform="translate(0.000000,1024.000000) scale(0.100000,-0.100000)"
fill="#b70000" stroke="none">
<path d="M7772 8610 c-6 -14 -27 -111 -46 -215 -61 -330 -102 -442 -195 -536
-84 -83 -173 -121 -478 -199 -42 -11 -73 -44 -56 -60 4 -5 85 -23 178 -40 268
-49 363 -109 441 -275 44 -94 120 -408 140 -576 3 -30 8 -56 10 -58 9 -10 23
14 29 52 3 23 15 87 25 142 11 55 22 116 25 135 27 164 105 347 184 427 71 72
148 107 356 159 172 43 207 56 192 70 -3 4 -71 19 -149 35 -270 53 -324 74
-406 156 -75 75 -117 172 -157 368 -9 44 -19 89 -21 100 -2 11 -7 34 -9 50 -3
17 -10 55 -15 85 -5 30 -12 73 -16 95 -3 22 -9 56 -13 75 l-8 35 -11 -25z"/>
<path d="M5175 8210 c-49 -4 -121 -11 -160 -14 -180 -17 -491 -90 -700 -166
-279 -101 -531 -226 -749 -373 -185 -124 -307 -226 -491 -411 -156 -157 -264
-287 -376 -451 -304 -444 -506 -980 -584 -1550 -22 -158 -31 -597 -16 -773 31
-377 140 -771 292 -1062 72 -137 61 -128 149 -118 314 35 712 117 1070 219
174 50 420 129 420 136 0 3 -28 35 -62 72 -141 150 -252 348 -313 561 -125
435 -141 878 -49 1345 85 429 323 865 597 1093 390 325 843 402 1196 205 128
-71 206 -165 293 -352 28 -58 51 -108 53 -109 2 -2 151 47 332 108 180 62 477
162 658 223 322 109 330 113 327 137 -9 61 -98 311 -148 409 -86 174 -214 332
-377 467 -262 219 -533 341 -861 388 -128 18 -383 27 -501 16z"/>
<path d="M8210 7125 c0 -2 49 -20 110 -39 60 -20 131 -47 158 -60 75 -38 154
-108 191 -171 29 -48 35 -68 39 -135 6 -97 -7 -150 -60 -255 -367 -728 -1957
-1846 -3706 -2604 -772 -335 -1392 -537 -1982 -646 -242 -44 -454 -65 -670
-65 -344 0 -556 65 -708 216 -187 187 -171 459 53 854 54 97 161 261 217 335
42 55 47 71 19 56 -23 -13 -274 -280 -368 -393 -253 -302 -376 -569 -375 -810
2 -322 222 -529 669 -628 192 -43 528 -49 813 -15 262 31 222 36 332 -38 237
-158 452 -248 724 -302 105 -21 495 -28 619 -12 491 64 952 261 1345 574 176
140 414 399 524 570 22 35 40 62 41 60 2 -1 31 -101 65 -222 34 -121 68 -226
75 -233 10 -11 50 0 221 63 115 43 295 108 399 146 105 38 214 79 243 90 l52
21 0 564 c0 310 4 564 8 564 13 0 247 159 417 283 533 390 958 797 1178 1132
214 325 269 585 167 785 -76 149 -289 262 -565 299 -86 12 -245 22 -245 16z"/>
<path d="M6700 6178 c-278 -93 -811 -273 -1185 -398 l-680 -228 -3 -486 c-2
-467 -1 -486 16 -486 11 0 278 87 595 193 318 107 577 191 577 187 0 -4 -11
-52 -25 -105 -30 -113 -85 -265 -127 -349 -16 -32 -28 -60 -25 -62 8 -8 536
289 777 439 262 163 639 416 650 437 9 16 9 92 1 293 -6 150 -13 367 -17 482
-7 212 -13 256 -36 254 -7 0 -240 -77 -518 -171z"/>
</g>
</svg>
