<svg width="95" height="52" viewBox="0 0 95 52" fill="none" xmlns="http://www.w3.org/2000/svg">
<path d="M37.026 46.6555V51.2777H1.51865V47.5944L22.5627 27.011C25.2143 24.411 26.9981 22.1722 27.9141 20.2944C28.8783 18.3684 29.3605 16.4425 29.3605 14.5166C29.3605 11.5314 28.3239 9.2203 26.2508 7.58326C24.226 5.89808 21.3092 5.05548 17.5006 5.05548C11.5706 5.05548 6.96648 6.93326 3.68814 10.6888L0 7.51104C1.97665 5.19993 4.48362 3.41845 7.52091 2.1666C10.6064 0.914744 14.0776 0.288818 17.9345 0.288818C23.093 0.288818 27.1669 1.5166 30.1559 3.97215C33.1932 6.37956 34.7119 9.70178 34.7119 13.9388C34.7119 16.5388 34.1333 19.0425 32.9763 21.4499C31.8192 23.8573 29.6256 26.6259 26.3955 29.7555L9.18418 46.6555H37.026Z" fill="#0F0F11"/>
<path fill-rule="evenodd" clip-rule="evenodd" d="M94.0113 26C94.0113 40.3594 82.3555 52 67.9774 52C53.5993 52 41.9435 40.3594 41.9435 26C41.9435 11.6406 53.5993 0 67.9774 0C82.3555 0 94.0113 11.6406 94.0113 26ZM89.6723 26C89.6723 37.9662 79.9592 47.6667 67.9774 47.6667C55.9956 47.6667 46.2825 37.9662 46.2825 26C46.2825 14.0338 55.9956 4.33333 67.9774 4.33333C79.9592 4.33333 89.6723 14.0338 89.6723 26Z" fill="#0F0F11"/>
</svg>
